<?xml version="1.0" encoding="utf-8"?>
<!-- Generator: Adobe Illustrator 23.0.0, SVG Export Plug-In . SVG Version: 6.00 Build 0)  -->
<svg version="1.1" id="Layer_1" xmlns="http://www.w3.org/2000/svg" xmlns:xlink="http://www.w3.org/1999/xlink" x="0px" y="0px"
	 viewBox="0 0 250 106" style="enable-background:new 0 0 250 106;" xml:space="preserve">
<style type="text/css">
	.st0{fill:#E02041;}
	.st1{fill:#41414D;}
</style>
<path class="st0" d="M93.9,94.3H76.9l10.3-34.9h-8.7L64.2,106H47.1l28.2-94.4h17.1l-9.6,33.1h8.7L105.1,0h17.1L93.9,94.3z"/>
<path class="st0" d="M123.6,11.6h32.5l-4.9,14.9h-14.8l-5.4,18.2h14.9l-4.7,14.7h-14.5L121,78.5h15.8l-5.7,15.7H99.2L123.6,11.6z"/>
<path class="st0" d="M151.3,106h-17.2l27.5-94.4h31.2c3.7,0,6.2,1,7.5,3.2c1.3,2.1,1.5,4.5,0.7,7.3l-8.3,28.1
	c-0.4,1.2-1.2,2.3-2.3,3.4c-1.2,1-2.8,1.5-5,1.5c1.3,0.2,2.4,1,3.3,2.5c0.9,1.4,0.9,3.6,0,6.6l-8.9,30.1h-17.1l9.5-32.4
	c0.2-0.7,0.3-1.3,0.1-1.9c-0.2-0.6-0.8-0.9-1.9-0.9h-5.7L151.3,106z M174.2,46.9c0.8,0,1.6-0.2,2.3-0.6c0.7-0.4,1.2-1.2,1.7-2.5
	l4.5-15.3c0.7-2.3-0.2-3.4-2.6-3.4h-5.4l-6.5,22H174.2z"/>
<path class="st0" d="M243,11.6c2.7,0,4.6,1,5.8,2.9c1.2,1.9,1.5,4.1,0.8,6.5l-19,64.5c-1,3.4-2.8,5.7-5.3,7c-2.5,1.2-5.2,1.8-8,1.8
	H197c-1.4,0-2.8-0.3-4-0.8c-1.2-0.5-2.2-1.2-3-2.2c-0.8-1-1.3-2.2-1.6-3.6c-0.3-1.4-0.1-3,0.4-4.7l18.6-63.3
	c0.6-2.4,1.9-4.4,3.7-5.9c1.9-1.4,4.2-2.2,7-2.2H243z M225.1,24.9c-0.8,0-1.4,0.2-1.8,0.6c-0.4,0.4-0.6,0.9-0.8,1.4l-15.2,51.5
	c-0.4,1.4,0.1,2.1,1.6,2.1h4.4c1.4,0,2.3-0.7,2.8-2.1L231.1,27c0.3-1.4-0.2-2.1-1.7-2.1L225.1,24.9L225.1,24.9z"/>
<path class="st1" d="M31.4,20.6h11.1c1.4,0,2.3,0.4,2.8,1.2c0.4,0.8,0.5,1.7,0.2,2.8l-2.6,8.9c-0.1,0.6-0.5,1-1,1.4
	c-0.6,0.5-1.4,0.6-2.4,0.6c0.6,0,1,0.1,1.2,0.3c0.3,0.2,0.6,0.5,0.7,0.8c0.1,0.3,0.2,0.7,0.2,1.1c0,0.4-0.1,0.8-0.1,1.2l-2.5,8.2
	c-0.3,1-0.8,1.7-1.5,2.3c-0.7,0.6-1.8,0.8-3.1,0.8H22.7L31.4,20.6z M32.5,45.4c0.3,0,0.6-0.1,0.8-0.1c0.2-0.1,0.4-0.4,0.6-0.8l1.8-6
	c0.1-0.4,0.1-0.7,0-1s-0.4-0.3-0.8-0.3h-1.9l-2.5,8.3L32.5,45.4L32.5,45.4z M35.9,33.2c0.4,0,0.8-0.1,1-0.2c0.2-0.1,0.4-0.4,0.6-0.9
	l1.6-5.4c0.1-0.4,0.1-0.7,0.1-0.9c-0.1-0.2-0.4-0.3-0.8-0.3h-2L34,33.2H35.9z"/>
<path class="st1" d="M48.8,20.6h11.7L58.9,26h-5.5l-1.9,6.5h5.4l-1.6,5.3h-5.4l-2.1,6.9h5.7l-2.1,5.6H40L48.8,20.6z"/>
</svg>
